<svg width="22" height="22" viewBox="0 0 22 22" fill="none" xmlns="http://www.w3.org/2000/svg">
<path d="M11.2087 10.8031C9.7487 10.8031 8.4989 10.2833 7.45923 9.24364C6.41957 8.20398 5.89974 6.95417 5.89974 5.49422C5.89974 4.03427 6.41957 2.78446 7.45923 1.7448C8.4989 0.705135 9.7487 0.185303 11.2087 0.185303C12.6686 0.185303 13.9184 0.705135 14.9581 1.7448C15.9977 2.78446 16.5176 4.03427 16.5176 5.49422C16.5176 6.95417 15.9977 8.20398 14.9581 9.24364C13.9184 10.2833 12.6686 10.8031 11.2087 10.8031ZM0.59082 21.421V17.7047C0.59082 16.9526 0.784596 16.2616 1.17215 15.6316C1.5597 15.0016 2.07378 14.5203 2.71439 14.1876C4.08586 13.5018 5.47945 12.9878 6.89516 12.6453C8.31087 12.3029 9.7487 12.1313 11.2087 12.1304C12.6686 12.1304 14.1064 12.302 15.5222 12.6453C16.9379 12.9886 18.3315 13.5027 19.7029 14.1876C20.3444 14.5194 20.8589 15.0007 21.2465 15.6316C21.634 16.2625 21.8274 16.9535 21.8265 17.7047V21.421H0.59082ZM3.24528 18.7665H19.172V17.7047C19.172 17.4614 19.1114 17.2402 18.9902 17.0411C18.869 16.842 18.7084 16.6872 18.5084 16.5766C17.3139 15.9793 16.1083 15.5316 14.8917 15.2334C13.6751 14.9352 12.4474 14.7857 11.2087 14.7848C9.96991 14.7848 8.74222 14.9344 7.5256 15.2334C6.30897 15.5325 5.1034 15.9802 3.90889 16.5766C3.70981 16.6872 3.54922 16.842 3.42711 17.0411C3.30501 17.2402 3.24439 17.4614 3.24528 17.7047V18.7665ZM11.2087 8.14868C11.9386 8.14868 12.5638 7.88899 13.084 7.3696C13.6043 6.85021 13.864 6.22508 13.8631 5.49422C13.8631 4.76425 13.6034 4.13956 13.084 3.62017C12.5646 3.10078 11.9395 2.84065 11.2087 2.83976C10.4787 2.83976 9.854 3.0999 9.33461 3.62017C8.81522 4.14045 8.55508 4.76513 8.5542 5.49422C8.5542 6.2242 8.81434 6.84932 9.33461 7.3696C9.85488 7.88987 10.4796 8.14957 11.2087 8.14868Z" fill="#8000FF"/>
</svg>
