<svg width="29" height="29" viewBox="0 0 29 29" fill="none" xmlns="http://www.w3.org/2000/svg">
<path d="M14.5 2.07143C7.63633 2.07143 2.07144 7.63632 2.07144 14.5C2.07144 16.7423 2.66387 18.8428 3.70062 20.6573C3.76914 20.7771 3.81306 20.9093 3.82977 21.0462C3.84649 21.1832 3.83568 21.3221 3.79797 21.4548L2.30758 26.6945L7.54933 25.2031C7.68204 25.1654 7.82095 25.1546 7.9579 25.1713C8.09485 25.188 8.22708 25.2319 8.34683 25.3004C10.2207 26.3707 12.342 26.932 14.5 26.9286C21.3647 26.9286 26.9286 21.3637 26.9286 14.5C26.9286 7.63632 21.3647 2.07143 14.5 2.07143ZM1.10593e-05 14.5C1.10593e-05 6.49186 6.49187 0 14.5 0C22.5081 0 29 6.49186 29 14.5C29 22.5081 22.5081 29 14.5 29C12.0474 29 9.73365 28.39 7.70572 27.3128L1.9803 28.941C1.7142 29.0164 1.43279 29.0194 1.16514 28.9497C0.897484 28.88 0.653286 28.7402 0.457768 28.5445C0.26225 28.3489 0.1225 28.1046 0.0529523 27.8369C-0.0165952 27.5692 -0.0134187 27.2878 0.0621538 27.0218L1.6903 21.2974C0.577581 19.2046 -0.00292195 16.8702 1.10593e-05 14.5ZM8.28572 11.3929C8.28572 11.1182 8.39484 10.8547 8.58908 10.6605C8.78331 10.4663 9.04675 10.3571 9.32144 10.3571H19.6786C19.9533 10.3571 20.2167 10.4663 20.4109 10.6605C20.6052 10.8547 20.7143 11.1182 20.7143 11.3929C20.7143 11.6675 20.6052 11.931 20.4109 12.1252C20.2167 12.3195 19.9533 12.4286 19.6786 12.4286H9.32144C9.04675 12.4286 8.78331 12.3195 8.58908 12.1252C8.39484 11.931 8.28572 11.6675 8.28572 11.3929ZM9.32144 16.5714C9.04675 16.5714 8.78331 16.6805 8.58908 16.8748C8.39484 17.069 8.28572 17.3325 8.28572 17.6071C8.28572 17.8818 8.39484 18.1453 8.58908 18.3395C8.78331 18.5337 9.04675 18.6429 9.32144 18.6429H15.5357C15.8104 18.6429 16.0738 18.5337 16.2681 18.3395C16.4623 18.1453 16.5714 17.8818 16.5714 17.6071C16.5714 17.3325 16.4623 17.069 16.2681 16.8748C16.0738 16.6805 15.8104 16.5714 15.5357 16.5714H9.32144Z" fill="#8000FF"/>
</svg>
