<svg width="22" height="28" viewBox="0 0 22 28" fill="none" xmlns="http://www.w3.org/2000/svg">
<path d="M11.3475 16.7232C14.2754 16.7232 16.6564 14.3421 16.6564 11.4143C16.6564 8.4864 14.2754 6.10535 11.3475 6.10535C8.41962 6.10535 6.03857 8.4864 6.03857 11.4143C6.03857 14.3421 8.41962 16.7232 11.3475 16.7232ZM11.3475 8.75981C12.8114 8.75981 14.002 9.95033 14.002 11.4143C14.002 12.8782 12.8114 14.0687 11.3475 14.0687C9.88356 14.0687 8.69303 12.8782 8.69303 11.4143C8.69303 9.95033 9.88356 8.75981 11.3475 8.75981Z" fill="#8000FF"/>
<path d="M10.3125 27.094C10.5371 27.2545 10.8063 27.3407 11.0823 27.3407C11.3583 27.3407 11.6275 27.2545 11.8521 27.094C12.2556 26.8087 21.7386 19.9615 21.7001 11.4142C21.7001 5.55975 16.9367 0.796326 11.0823 0.796326C5.2279 0.796326 0.464472 5.55975 0.464472 11.4075C0.425983 19.9615 9.90904 26.8087 10.3125 27.094ZM11.0823 3.45078C15.4741 3.45078 19.0457 7.02236 19.0457 11.4208C19.0736 17.311 13.2218 22.6001 11.0823 24.3347C8.94414 22.5987 3.09106 17.3084 3.11893 11.4142C3.11893 7.02236 6.69051 3.45078 11.0823 3.45078Z" fill="#8000FF"/>
</svg>
