<svg width="25" height="25" viewBox="0 0 25 25" fill="none" xmlns="http://www.w3.org/2000/svg">
<path d="M22.7322 24.2792L14.3707 15.9176C13.707 16.4485 12.9439 16.8688 12.0812 17.1785C11.2185 17.4882 10.3005 17.643 9.32719 17.643C6.91605 17.643 4.87566 16.8078 3.206 15.1372C1.53635 13.4667 0.70108 11.4263 0.700195 9.01603C0.700195 6.6049 1.53547 4.5645 3.206 2.89485C4.87654 1.22519 6.91694 0.389923 9.32719 0.389038C11.7383 0.389038 13.7792 1.22431 15.4497 2.89485C17.1202 4.56539 17.9551 6.60578 17.9542 9.01603C17.9542 9.98933 17.7993 10.9073 17.4896 11.77C17.18 12.6327 16.7597 13.3959 16.2288 14.0595L24.5903 22.4211L22.7322 24.2792ZM9.32719 14.9886C10.9862 14.9886 12.3966 14.4081 13.5584 13.2472C14.7202 12.0864 15.3006 10.676 15.2997 9.01603C15.2997 7.35699 14.7193 5.94703 13.5584 4.78615C12.3975 3.62527 10.9871 3.04438 9.32719 3.0435C7.66815 3.0435 6.25819 3.62438 5.09731 4.78615C3.93642 5.94792 3.35554 7.35788 3.35465 9.01603C3.35465 10.6751 3.93554 12.0855 5.09731 13.2472C6.25908 14.409 7.66904 14.9894 9.32719 14.9886Z" fill="#8000FF"/>
</svg>
