<svg width="30" height="28" viewBox="0 0 30 28" fill="none" xmlns="http://www.w3.org/2000/svg">
<path fill-rule="evenodd" clip-rule="evenodd" d="M15.3683 3.45228C15.0016 3.14545 14.4629 3.14545 14.0962 3.45228L3.6199 12.2165C3.40036 12.4002 3.27383 12.6695 3.27383 12.9531V23.683C3.27383 24.2169 3.71356 24.6497 4.25598 24.6497H25.2085C25.7509 24.6497 26.1907 24.2169 26.1907 23.683V12.9531C26.1907 12.6695 26.0641 12.4002 25.8446 12.2166L15.3683 3.45228ZM11.9759 0.997189C13.5652 -0.332399 15.8993 -0.332395 17.4886 0.997191L27.9649 9.76146C28.9162 10.5573 29.4645 11.7242 29.4645 12.9531V23.683C29.4645 25.9964 27.559 27.8718 25.2085 27.8718H4.25598C1.90547 27.8718 0 25.9964 0 23.683V12.9531C0 11.7242 0.548268 10.5573 1.4996 9.76146L11.9759 0.997189Z" fill="#8000FF"/>
</svg>
