<svg width="13" height="14" viewBox="0 0 13 14" fill="none" xmlns="http://www.w3.org/2000/svg">
<path d="M12.4999 6.99299C12.5004 7.17115 12.4532 7.34621 12.3633 7.50004C12.2735 7.65388 12.1441 7.78091 11.9887 7.86799L1.49429 13.8686C1.34351 13.9541 1.17325 13.9993 0.999918 13.9999C0.840072 13.9995 0.682633 13.9609 0.540798 13.8872C0.398964 13.8135 0.276867 13.7068 0.184741 13.5762C0.0926162 13.4456 0.0331475 13.2948 0.0113203 13.1364C-0.0105069 12.9781 0.00594354 12.8168 0.0592925 12.6661L1.76867 7.66924C1.78551 7.6198 1.81741 7.57688 1.8599 7.5465C1.90238 7.51612 1.95331 7.49981 2.00554 7.49986H6.49992C6.56846 7.50001 6.6363 7.48607 6.69923 7.45889C6.76216 7.43172 6.81883 7.3919 6.86572 7.3419C6.91261 7.29191 6.94872 7.2328 6.9718 7.16827C6.99489 7.10373 7.00446 7.03513 6.99992 6.96674C6.98858 6.83816 6.92909 6.71862 6.83336 6.63205C6.73763 6.54547 6.61273 6.49826 6.48367 6.49986H2.00992C1.95777 6.49995 1.90689 6.48374 1.86442 6.45348C1.82194 6.42322 1.78999 6.38043 1.77304 6.33111L0.0580425 1.33111C-0.0087435 1.13952 -0.015668 0.932141 0.0381886 0.736519C0.0920453 0.540898 0.204135 0.366287 0.359572 0.235874C0.51501 0.105461 0.706441 0.0254164 0.908445 0.00636967C1.11045 -0.012677 1.31347 0.0301752 1.49054 0.129236L11.9905 6.12236C12.145 6.20932 12.2735 6.33576 12.363 6.48874C12.4525 6.64172 12.4998 6.81575 12.4999 6.99299Z" fill="#8C8C8C"/>
</svg>
