<svg width="145" height="145" viewBox="0 0 145 145" fill="none" xmlns="http://www.w3.org/2000/svg">
<path d="M35 5H20C16.0218 5 12.2064 6.58035 9.3934 9.3934C6.58035 12.2064 5 16.0218 5 20V35M110 5H125C128.978 5 132.794 6.58035 135.607 9.3934C138.42 12.2064 140 16.0218 140 20V35M102.5 42.5V57.5M42.5 42.5V57.5M50 102.5C50 102.5 57.5 110 72.5 110C87.5 110 95 102.5 95 102.5M72.5 42.5V80H65M35 140H20C16.0218 140 12.2064 138.42 9.3934 135.607C6.58035 132.794 5 128.978 5 125V110M110 140H125C128.978 140 132.794 138.42 135.607 135.607C138.42 132.794 140 128.978 140 125V110" stroke="#8000FF" stroke-width="9" stroke-linecap="round" stroke-linejoin="round"/>
</svg>
